<svg width="50" height="43" viewBox="0 0 50 43" fill="none" xmlns="http://www.w3.org/2000/svg">
<path d="M49.375 3V12.375C49.375 12.8723 49.1775 13.3492 48.8258 13.7008C48.4742 14.0525 47.9973 14.25 47.5 14.25C47.0027 14.25 46.5258 14.0525 46.1742 13.7008C45.8225 13.3492 45.625 12.8723 45.625 12.375V4.875H38.125C37.6277 4.875 37.1508 4.67746 36.7992 4.32582C36.4475 3.97419 36.25 3.49728 36.25 3C36.25 2.50272 36.4475 2.02581 36.7992 1.67418C37.1508 1.32254 37.6277 1.125 38.125 1.125H47.5C47.9973 1.125 48.4742 1.32254 48.8258 1.67418C49.1775 2.02581 49.375 2.50272 49.375 3ZM11.875 38.625H4.375V31.125C4.375 30.6277 4.17746 30.1508 3.82582 29.7992C3.47419 29.4475 2.99728 29.25 2.5 29.25C2.00272 29.25 1.52581 29.4475 1.17417 29.7992C0.822544 30.1508 0.625 30.6277 0.625 31.125V40.5C0.625 40.9973 0.822544 41.4742 1.17417 41.8258C1.52581 42.1775 2.00272 42.375 2.5 42.375H11.875C12.3723 42.375 12.8492 42.1775 13.2008 41.8258C13.5525 41.4742 13.75 40.9973 13.75 40.5C13.75 40.0027 13.5525 39.5258 13.2008 39.1742C12.8492 38.8225 12.3723 38.625 11.875 38.625ZM47.5 29.25C47.0027 29.25 46.5258 29.4475 46.1742 29.7992C45.8225 30.1508 45.625 30.6277 45.625 31.125V38.625H38.125C37.6277 38.625 37.1508 38.8225 36.7992 39.1742C36.4475 39.5258 36.25 40.0027 36.25 40.5C36.25 40.9973 36.4475 41.4742 36.7992 41.8258C37.1508 42.1775 37.6277 42.375 38.125 42.375H47.5C47.9973 42.375 48.4742 42.1775 48.8258 41.8258C49.1775 41.4742 49.375 40.9973 49.375 40.5V31.125C49.375 30.6277 49.1775 30.1508 48.8258 29.7992C48.4742 29.4475 47.9973 29.25 47.5 29.25ZM2.5 14.25C2.99728 14.25 3.47419 14.0525 3.82582 13.7008C4.17746 13.3492 4.375 12.8723 4.375 12.375V4.875H11.875C12.3723 4.875 12.8492 4.67746 13.2008 4.32582C13.5525 3.97419 13.75 3.49728 13.75 3C13.75 2.50272 13.5525 2.02581 13.2008 1.67418C12.8492 1.32254 12.3723 1.125 11.875 1.125H2.5C2.00272 1.125 1.52581 1.32254 1.17417 1.67418C0.822544 2.02581 0.625 2.50272 0.625 3V12.375C0.625 12.8723 0.822544 13.3492 1.17417 13.7008C1.52581 14.0525 2.00272 14.25 2.5 14.25ZM39.0625 30.8906L25.9375 38.3906C25.6541 38.5526 25.3334 38.6378 25.007 38.6378C24.6806 38.6378 24.3599 38.5526 24.0766 38.3906L10.9375 30.8906C10.65 30.7246 10.4117 30.4853 10.247 30.197C10.0823 29.9088 9.99703 29.582 10 29.25V14.25C9.99703 13.918 10.0823 13.5912 10.247 13.303C10.4117 13.0147 10.65 12.7754 10.9375 12.6094L24.0625 5.10938C24.3459 4.94741 24.6666 4.86221 24.993 4.86221C25.3194 4.86221 25.6401 4.94741 25.9234 5.10938L39.0484 12.6094C39.336 12.7754 39.5743 13.0147 39.739 13.303C39.9037 13.5912 39.9889 13.918 39.9859 14.25V29.25C39.9903 29.5806 39.9072 29.9065 39.7451 30.1946C39.5829 30.4827 39.3474 30.7229 39.0625 30.8906ZM15.6531 14.25L25 19.5914L34.3469 14.25L25 8.90859L15.6531 14.25ZM13.75 28.1625L23.125 33.518V22.8375L13.75 17.482V28.1625ZM36.25 28.1625V17.482L26.875 22.8375V33.518L36.25 28.1625Z" fill="white" stroke="white"/>
</svg>
