<svg width="25" height="25" viewBox="0 0 25 25" fill="none" xmlns="http://www.w3.org/2000/svg">
<path d="M24.4143 6.17127L18.828 0.586199C18.6423 0.400431 18.4218 0.25307 18.1791 0.152531C17.9364 0.0519914 17.6763 0.000244141 17.4136 0.000244141C17.1509 0.000244141 16.8908 0.0519914 16.6481 0.152531C16.4055 0.25307 16.185 0.400431 15.9992 0.586199L0.58529 16.0001C0.398763 16.1852 0.250878 16.4055 0.150234 16.6482C0.0495901 16.8909 -0.00180587 17.1512 -0.000966444 17.4139V23.0002C-0.000966444 23.5307 0.20975 24.0394 0.584827 24.4144C0.959904 24.7895 1.46862 25.0002 1.99906 25.0002H22.9993C23.2645 25.0002 23.5189 24.8949 23.7064 24.7073C23.894 24.5198 23.9993 24.2655 23.9993 24.0002C23.9993 23.735 23.894 23.4807 23.7064 23.2931C23.5189 23.1056 23.2645 23.0002 22.9993 23.0002H10.4142L24.4143 9.00005C24.6001 8.81432 24.7475 8.59382 24.848 8.35114C24.9485 8.10846 25.0003 7.84834 25.0003 7.58566C25.0003 7.32297 24.9485 7.06286 24.848 6.82018C24.7475 6.57749 24.6001 6.35699 24.4143 6.17127ZM7.58538 23.0002H1.99906V17.4139L12.9992 6.41377L18.5855 12.0001L7.58538 23.0002ZM19.9993 10.5863L14.4142 5L17.4142 1.99997L22.9993 7.58628L19.9993 10.5863Z" fill="black"/>
</svg>
